# xmcd CD database file
#
# Track frame offsets:
#	150
#	28965
#	52835
#	74040
#	105548
#	117063
#	143308
#	175215
#	194643
#	215403
#	243755
#
# Disc length: 3395 seconds
#
# Revision: 0
# Processed by: cddbd v1.4PL0 Copyright (c) Steve Scherf et al.
# Submitted via: CDex 1.50Beta7
#
DISCID=990d410b
DTITLE=Jay Stapley - Tower Of Babel
DYEAR=1900
DGENRE=Jazz
TTITLE0=The Gull's Way
TTITLE1=Orient Express
TTITLE2=Teakainow
TTITLE3=Snake
TTITLE4=Mango
TTITLE5=El Cordoba
TTITLE6=Corrigan's Breakdawn
TTITLE7=Mare Tranquille
TTITLE8=Tower Of Babel
TTITLE9=Postcard From De Blue
TTITLE10=Lewie
EXTD=
EXTT0=
EXTT1=
EXTT2=
EXTT3=
EXTT4=
EXTT5=
EXTT6=
EXTT7=
EXTT8=
EXTT9=
EXTT10=
PLAYORDER=
